<svg width="73" height="73" viewBox="0 0 73 73" fill="none" xmlns="http://www.w3.org/2000/svg">
<path d="M73 36.5C73 56.6584 56.6584 73 36.5 73C16.3416 73 0 56.6584 0 36.5C0 16.3416 16.3416 0 36.5 0C56.6584 0 73 16.3416 73 36.5Z" fill="white"/>
<path fill-rule="evenodd" clip-rule="evenodd" d="M12.0015 63.5573C15.3295 54.6627 22.1957 47.8928 30.5901 45.5335C25.6989 42.9499 22.2942 37.1865 22.2942 30.4913C22.2942 21.3834 28.5948 14 36.3671 14C44.1393 14 50.44 21.3834 50.44 30.4913C50.44 36.9528 47.2689 42.5464 42.6508 45.2514C51.2469 47.2403 58.3772 53.8164 61.9799 62.6347C60.9357 63.653 59.8307 64.6091 58.6709 65.4973C55.1547 56.0518 46.9123 49.3385 37.1712 49.3385C27.1626 49.3385 18.7361 56.4256 15.3926 66.2816C14.2079 65.4404 13.0756 64.5304 12.0015 63.5573ZM26.315 30.4913C26.315 23.9857 30.8155 18.7118 36.3671 18.7118C41.9187 18.7118 46.4192 23.9857 46.4192 30.4913C46.4192 36.9969 41.9187 42.2708 36.3671 42.2708C30.8155 42.2708 26.315 36.9969 26.315 30.4913Z" fill="black"/>
</svg>
