<svg width="20" height="8" viewBox="0 0 20 8" fill="none" xmlns="http://www.w3.org/2000/svg">
<path fill-rule="evenodd" clip-rule="evenodd" d="M8.34686 0C7.2098 0 6.28803 0.943573 6.28803 2.10753V2.70968H2.05882C0.921765 2.70968 0 3.65325 0 4.8172V5.72043C0 6.55183 0.658405 7.22581 1.47059 7.22581H18.5294C19.3416 7.22581 20 6.55183 20 5.72043V4.8172C20 3.65325 19.0782 2.70968 17.9412 2.70968H13.712V2.10753C13.712 0.943572 12.7902 0 11.6531 0H8.34686ZM8.05274 2.10753C8.05274 1.94125 8.18442 1.80645 8.34686 1.80645H11.6531C11.8156 1.80645 11.9473 1.94125 11.9473 2.10753V3.01075C11.9473 3.84215 12.6057 4.51613 13.4179 4.51613H17.9412C18.1036 4.51613 18.2353 4.65093 18.2353 4.8172V5.41935H1.76471V4.8172C1.76471 4.65092 1.89639 4.51613 2.05882 4.51613H6.58215C7.39433 4.51613 8.05274 3.84215 8.05274 3.01075V2.10753Z" fill="black"/>
</svg>
