<svg width="20" height="20" viewBox="0 0 20 20" fill="none" xmlns="http://www.w3.org/2000/svg">
<path d="M4.69654 3.32554C5.17645 3.23892 5.63409 3.56695 5.71871 4.05821L7.55734 14.7323C7.64196 15.2235 7.32152 15.692 6.84161 15.7786C6.3617 15.8652 5.90406 15.5372 5.81944 15.0459L3.98082 4.37189C3.89619 3.88063 4.21664 3.41217 4.69654 3.32554Z" fill="black"/>
<path d="M10.438 4.21505C10.438 3.71621 10.043 3.31182 9.55565 3.31182C9.06834 3.31182 8.67329 3.71621 8.67329 4.21505V15.0538C8.67329 15.5526 9.06834 15.957 9.55565 15.957C10.043 15.957 10.438 15.5526 10.438 15.0538V4.21505Z" fill="black"/>
<path d="M14.5625 3.32554C15.0424 3.41217 15.3629 3.88063 15.2783 4.37189L13.4396 15.0459C13.355 15.5372 12.8974 15.8652 12.4175 15.7786C11.9376 15.692 11.6171 15.2235 11.7017 14.7323L13.5404 4.05821C13.625 3.56695 14.0826 3.23892 14.5625 3.32554Z" fill="black"/>
<path fill-rule="evenodd" clip-rule="evenodd" d="M0.015117 2.36005C-0.132846 1.10507 0.824236 0 2.05911 0H17.5707C18.8476 0 19.8166 1.17752 19.5996 2.46561L17.1483 17.0195C16.9294 18.3192 15.8281 19.2688 14.5397 19.2688H4.35547C3.01621 19.2688 1.88795 18.2449 1.72748 16.8838L0.015117 2.36005ZM2.05911 1.80645C1.8827 1.80645 1.74597 1.96432 1.76711 2.1436L3.47947 16.6674C3.53296 17.1211 3.90905 17.4624 4.35547 17.4624H14.5397C14.9692 17.4624 15.3363 17.1458 15.4093 16.7126L17.8606 2.15868C17.8916 1.97467 17.7532 1.80645 17.5707 1.80645H2.05911Z" fill="black"/>
</svg>
